<?xml version="1.0" standalone="no"?>
<!DOCTYPE svg PUBLIC "-//W3C//DTD SVG 20010904//EN"
 "http://www.w3.org/TR/2001/REC-SVG-20010904/DTD/svg10.dtd">
<svg version="1.0" xmlns="http://www.w3.org/2000/svg"
 width="1280.000000pt" height="425.000000pt" viewBox="0 0 1280.000000 425.000000"
 preserveAspectRatio="xMidYMid meet">
<metadata>
Created by potrace 1.15, written by Peter Selinger 2001-2017
</metadata>
<g transform="translate(0.000000,425.000000) scale(0.100000,-0.100000)"
fill="#000000" stroke="none">
<path d="M9615 4231 c-91 -33 -169 -72 -250 -126 -232 -154 -346 -325 -444
-670 -17 -61 -38 -127 -46 -148 -8 -20 -15 -66 -15 -101 0 -126 89 -242 247
-323 99 -51 186 -73 294 -73 111 0 166 19 217 74 34 37 41 54 52 113 9 55 9
80 -1 112 -27 92 -87 101 -281 43 -174 -53 -227 -60 -277 -38 -50 23 -71 62
-78 144 -11 134 38 323 125 482 55 100 202 255 294 309 174 102 358 132 582
96 477 -77 888 -461 1028 -960 41 -143 47 -174 59 -300 24 -250 -13 -477 -109
-670 -48 -97 -110 -187 -294 -429 -401 -524 -603 -736 -960 -1004 -291 -218
-490 -322 -618 -322 -113 0 -240 34 -732 196 -606 199 -1003 347 -1548 577
-293 123 -547 244 -1080 513 -239 121 -520 257 -625 303 -584 258 -1084 388
-1658 432 -202 15 -709 7 -947 -16 -172 -16 -212 -24 -475 -84 -261 -59 -483
-78 -545 -46 -36 18 -39 42 -7 55 515 211 659 261 941 326 505 116 886 163
1373 171 789 13 1441 -80 2303 -329 336 -97 613 -206 1157 -456 235 -108 729
-313 1031 -428 120 -45 391 -125 507 -149 133 -27 301 -38 425 -25 63 6 176
15 250 20 224 17 359 61 493 163 113 86 181 191 175 270 -8 111 -149 72 -368
-101 -118 -93 -200 -138 -345 -185 l-130 -42 -200 1 c-181 0 -211 3 -315 27
-276 65 -549 163 -1071 385 -167 72 -385 164 -484 205 -99 42 -229 99 -289
127 -408 191 -708 296 -1191 415 -230 57 -433 96 -702 135 -390 57 -560 71
-974 77 -762 12 -1224 -45 -1944 -237 -309 -83 -331 -91 -635 -235 -276 -131
-322 -145 -502 -154 -136 -7 -151 -10 -210 -39 -114 -56 -166 -121 -252 -314
-41 -92 -104 -159 -172 -182 -52 -17 -137 -84 -276 -213 -125 -116 -122 -111
-95 -164 30 -57 63 -63 121 -21 123 88 408 242 448 242 32 0 59 -20 74 -55 15
-36 76 -84 147 -115 72 -32 213 -52 362 -54 131 -1 143 1 189 24 61 31 84 61
92 121 5 40 3 50 -15 68 -28 28 -46 24 -197 -35 -200 -79 -280 -88 -341 -41
-14 11 -52 33 -84 48 -142 67 -104 155 91 210 40 12 157 60 259 109 357 168
482 210 568 189 112 -27 270 -116 503 -284 47 -34 144 -95 215 -137 239 -138
1015 -524 1435 -713 228 -103 481 -218 561 -256 280 -132 713 -282 1294 -448
776 -221 1336 -303 1955 -287 237 6 509 31 694 62 167 28 281 61 461 132 254
99 280 106 395 99 52 -3 156 -20 230 -36 168 -38 235 -47 429 -61 199 -14 624
-14 771 -1 482 45 939 172 1254 348 244 136 392 254 696 553 106 104 164 274
158 458 -2 91 -7 115 -28 156 -32 63 -82 91 -161 91 -131 0 -153 -56 -103
-268 36 -152 39 -284 6 -345 -31 -59 -207 -233 -322 -318 -124 -93 -370 -240
-545 -325 -211 -104 -392 -158 -670 -201 -138 -21 -183 -23 -545 -22 -329 0
-434 4 -630 22 -324 31 -418 43 -400 54 534 312 789 502 1051 779 239 252 383
435 529 670 207 333 290 613 277 934 -20 488 -252 927 -657 1244 -63 50 -227
131 -315 156 -213 61 -551 85 -660 46z m-6100 -1889 c320 -20 644 -92 1150
-254 374 -120 600 -222 1100 -498 433 -239 1714 -805 1938 -855 40 -9 207 -62
372 -117 299 -100 525 -170 748 -230 64 -17 117 -35 117 -39 0 -5 -17 -11 -37
-14 -21 -4 -102 -26 -180 -50 -349 -108 -643 -146 -1134 -145 -308 0 -435 6
-769 41 -267 27 -420 53 -590 99 -800 216 -1160 328 -1360 423 -63 30 -155 67
-205 82 -247 75 -944 407 -1860 884 -244 128 -349 188 -402 232 -40 32 -79 59
-86 59 -25 0 -407 217 -407 231 0 4 30 12 68 19 37 6 144 31 237 55 204 53
338 74 545 85 188 9 537 6 755 -8z m-2077 -119 c35 -9 59 -19 55 -23 -4 -4
-60 -24 -123 -45 -62 -20 -145 -52 -182 -71 -37 -19 -100 -47 -140 -63 -40
-16 -136 -59 -213 -95 -200 -94 -218 -89 -58 16 111 73 148 95 323 198 69 41
139 82 155 92 34 20 76 18 183 -9z m-473 -3 c-4 -6 -27 -21 -53 -34 -26 -13
-56 -34 -67 -46 -24 -26 -72 -53 -87 -48 -12 4 99 91 154 121 36 19 63 23 53
7z"/>
</g>
</svg>
